<svg id="new_challenge_logo" xmlns="http://www.w3.org/2000/svg" width="57" height="57" viewBox="0 0 57 57">
  <path id="Subtraction_3" data-name="Subtraction 3" d="M28.5,57a28.367,28.367,0,0,1-15.935-4.867A28.583,28.583,0,0,1,2.24,39.594,28.463,28.463,0,0,1,4.867,12.565,28.583,28.583,0,0,1,17.406,2.24,28.463,28.463,0,0,1,44.435,4.867,28.583,28.583,0,0,1,54.76,17.406a28.463,28.463,0,0,1-2.628,27.028A28.583,28.583,0,0,1,39.594,54.76,28.322,28.322,0,0,1,28.5,57Zm0-49.259A20.759,20.759,0,1,0,49.259,28.5,20.783,20.783,0,0,0,28.5,7.741Z" fill="#fff"/>
  <rect id="Rectangle_13" data-name="Rectangle 13" width="4" height="31" transform="translate(13 31) rotate(-90)" fill="#fff"/>
  <rect id="Rectangle_14" data-name="Rectangle 14" width="4" height="31" transform="translate(26.5 13.382)" fill="#fff"/>
</svg>
