<svg id="reverse_icon_horizontal" xmlns="http://www.w3.org/2000/svg" width="185.572" height="51.475" viewBox="0 0 185.572 51.475">
  <g id="Group_7" data-name="Group 7">
    <g id="Group_6" data-name="Group 6">
      <g id="Group_5" data-name="Group 5">
        <path id="Union_2" data-name="Union 2" d="M14.7,49.611a24.074,24.074,0,0,1-10.591-8.6,23.662,23.662,0,0,1-2.219-4.03,23.484,23.484,0,0,1,0-18.469,23.7,23.7,0,0,1,2.219-4.03,24.138,24.138,0,0,1,16.381-10.2l-.043-1.261A2.956,2.956,0,0,1,24.878.394l5.676,3.228A2.9,2.9,0,0,1,30.6,8.659L25.145,11.9a2.967,2.967,0,0,1-4.405-1.851,17.861,17.861,0,0,0-13.9,17.568c0,9.886,7.792,17.928,17.37,17.928,9.508,0,17.3-7.982,17.37-17.793a3.283,3.283,0,0,1,6.565,0,23.287,23.287,0,0,1-1.892,9.234,23.655,23.655,0,0,1-2.219,4.03,24.333,24.333,0,0,1-29.331,8.6Z" fill="#fff"/>
        <text id="Reverse" transform="translate(64.572 40.143)" fill="#fff" font-size="35" font-family="DoHyeon-Regular, Do Hyeon"><tspan x="0" y="0">Reverse</tspan></text>
      </g>
    </g>
  </g>
</svg>
