<svg xmlns="http://www.w3.org/2000/svg" width="50.618" height="50.652" viewBox="0 0 50.618 50.652">
  <g id="maths-class-materials-cross-of-a-pencil-and-a-ruler" transform="translate(-0.01 0)">
    <path id="Path_4" data-name="Path 4" d="M50.167,15.809,39.759,25.845l-2.135-2.263,7.877-7.6a1.915,1.915,0,0,0,.048-2.709L38.516,5.984a1.921,1.921,0,0,0-2.71-.05L29.6,11.92l5.39,5.582a1.2,1.2,0,0,1-.056,1.671,1.216,1.216,0,0,1-1.2.276l-7.82-8.291L36.143,1.282a1.577,1.577,0,0,1,2.214.059L50.183,13.6A1.571,1.571,0,0,1,50.167,15.809ZM14.832,45.564a1.886,1.886,0,0,1-1.361.533,1.936,1.936,0,0,1-1.348-.581L5.09,38.22a1.911,1.911,0,0,1,.048-2.7l3.234,3.36a1.161,1.161,0,0,0,1.639.034,1.15,1.15,0,0,0,.024-1.634L6.806,33.911l.861-.832,3.234,3.36a1.156,1.156,0,1,0,1.663-1.607L9.331,31.477l.862-.832L13.424,34a1.157,1.157,0,1,0,1.667-1.6l-3.234-3.357.861-.832,3.234,3.354a1.156,1.156,0,0,0,1.966-.554l-5.988-6.357L.473,35.694A1.575,1.575,0,0,0,.452,37.9L12.279,50.17a1.565,1.565,0,0,0,2.207.051l11.287-10.88L23.64,37.078ZM35.5,15.421a3.887,3.887,0,1,1,5.493.1A3.886,3.886,0,0,1,35.5,15.421Zm1.669-1.61a1.566,1.566,0,1,0,.04-2.217A1.577,1.577,0,0,0,37.166,13.811Zm6.282,19.915L33.269,43.317,10.585,19.247,20.767,9.656ZM22.474,16.368a.875.875,0,0,0-.241-.626l-1.108-1.172a.877.877,0,0,0-1.236-.037l-.6.564a.875.875,0,0,0-.038,1.236l1.1,1.18a.868.868,0,0,0,.617.273c.232.01,1.228-.8,1.228-.8A.9.9,0,0,0,22.474,16.368ZM38.232,34a.872.872,0,0,0,.035-1.239L25.523,19.239a.853.853,0,0,0-.613-.276.88.88,0,0,0-.624.236l-.6.569A.872.872,0,0,0,23.646,21L36.389,34.526a.893.893,0,0,0,.618.278.878.878,0,0,0,.629-.24ZM9.554,18.15,19.733,8.556,17.1,5.767l-10.177,9.6ZM2.39,10.543a3.02,3.02,0,0,1,.126-4.279L8.285.829a3.021,3.021,0,0,1,4.279.123L16.14,4.745,5.961,14.336ZM4.206,8.455l1.869,1.987,6.17-5.814L10.371,2.645ZM48.612,47.426a1.5,1.5,0,0,1-1.973,1.859L34.558,44.676l10.168-9.594Zm-3.228-4.143-1.528-4.854-5.911,5.576L42.7,45.82Z" transform="translate(0 0)" fill="#fff"/>
  </g>
</svg>
