<svg xmlns="http://www.w3.org/2000/svg" width="47.714" height="47.714" viewBox="0 0 47.714 47.714">
  <path id="iconmonstr-trophy-17" d="M26.614,34.543a6.824,6.824,0,0,1-5.479,0c-.193,2.463-2.821,5.219-7.219,5.219v7.952H33.8V39.762C29.274,39.762,26.807,37.006,26.614,34.543Zm5.195,11.183H15.9V41.75h15.9Zm15.9-39.748C46.964,14.253,42,22.048,33.72,24.65c.664-1.1,1.322-2.3,1.956-3.61,5.883-3.012,8.145-8.479,9-12.483H39.149a20.331,20.331,0,0,0,.2-2.579h8.36ZM13.994,24.65C5.71,22.048.75,14.253,0,5.978H8.36a20.332,20.332,0,0,0,.2,2.579H3.038c.857,4.006,3.117,9.471,9,12.483C12.672,22.35,13.33,23.555,13.994,24.65Zm12.674,7.31C27.885,26.082,36.539,21.944,37.384,6.2,37.658,1.082,29.175,0,23.875,0,18.4,0,10.127.841,10.306,5.567,10.921,21.829,19.849,26,21.084,31.96A5.294,5.294,0,0,0,26.668,31.96ZM12.968,5.374c0-1.668,5.225-2.895,10.9-2.895,5.4,0,10.919,1.326,10.919,3.066,0,1.789-5.787,2.6-10.919,2.6-4.887,0-10.9-.74-10.9-2.769Zm4.439,4.813A40.854,40.854,0,0,0,22.36,26.082a34.059,34.059,0,0,1-8.1-16.509,26.115,26.115,0,0,0,3.149.614Z" fill="#fff"/>
</svg>
